<svg xmlns="http://www.w3.org/2000/svg" width="206.09" height="27.469" viewBox="0 0 206.09 27.469">
  <defs>
    <style>
      .cls-1 {
        fill: #fff;
        fill-rule: evenodd;
      }
    </style>
  </defs>
  <path id="cm-btn2.svg" class="cls-1" d="M4032.39,507.606v-3.647H4010.5v3.647h8.69v19.708h4.51V507.606h8.69Zm23.63-3.647h-4.81l-5.38,16.188-0.74,3.232-0.77-3.232-5.34-16.188h-4.85l8.69,23.355h4.51Zm22.99,15.485h-4.78a4.512,4.512,0,0,1-1.53,3.135,6.514,6.514,0,0,1-4.45,1.727c-3.74,0-6.82-3.039-6.82-8.51,0-5.854,3.51-8.8,7.32-8.8a5.26,5.26,0,0,1,5.48,4.319h4.78c-0.4-3.711-3.41-8.126-10.36-8.126-8.69,0-12,6.5-12,12.669,0,6.4,3.58,12.222,11.67,12.222C4075.47,528.082,4078.58,523.347,4079.01,519.444Zm27.66,7.87V503.959h-7.05l-4.34,16.124-0.57,3.712-0.57-3.712-4.31-16.124h-7.09v23.355h4.15V506.806l5.38,20.508h4.88l5.38-20.508v20.508h4.14Zm35.93-14.109a18.71,18.71,0,0,1-6.05-5.279c-2.24-3.039-2.34-5.055-2.37-6.046h-6.15v3.231h2.9a20.054,20.054,0,0,0,8.63,10.813Zm-17.35-7.9a0.643,0.643,0,0,0-.4-0.48L4120.84,503a20.91,20.91,0,0,1-8.62,10.718l3.54,2.335a30.119,30.119,0,0,0,8.22-9.661,0.81,0.81,0,0,1,.74-0.64A0.5,0.5,0,0,0,4125.25,505.3Zm15.41,21.179a49.328,49.328,0,0,0-7.96-11.549l-3.1,2.079a26.093,26.093,0,0,1,4.21,5.567c-2.14.192-4.05,0.352-9.96,0.608,2.2-4.063,2.47-4.607,4.71-9.534,0.47-.992.5-1.12,0.84-1.216,0.66-.224.9-0.32,0.9-0.736a0.817,0.817,0,0,0-.67-0.672l-4.14-1.279a117.093,117.093,0,0,1-5.55,13.565c-3.61.1-4.01,0.1-4.75,0.064l1.04,4.191a0.793,0.793,0,0,0,.6.767c0.23,0,.27-0.063.67-0.575a1.216,1.216,0,0,1,1-.352c2.88-.192,8.99-0.64,17.11-1.76,0.6,1.152.9,1.728,1.41,2.783Zm33.16-1.28V502.231h-12.9v9.822h9.39v12.285a1.043,1.043,0,0,1-1.27,1.12h-2.21l1.61,3.359h2.04C4173.08,528.817,4173.82,527.25,4173.82,525.2Zm-5.21-3.711v-2.847h-4.15v-2.336h3.28v-2.751h-15.71v2.751h3.38c0,0.992,0,1.376-.07,2.336h-4.28v2.847H4155c-0.6,2.144-1.3,3.295-4.31,5.087l2.91,2.143c2.71-2.175,4.01-3.743,4.71-7.23h2.71v6.655h3.44v-6.655h4.15Zm1.7-15.484h-5.75v-1.28h5.75v1.28Zm0,3.551h-5.75v-1.376h5.75v1.376Zm-9.29,9.086h-2.41c0.04-.608.04-0.992,0.07-2.336h2.34v2.336Zm-2.11-6.591v-9.822h-12.9v26.426h3.71v-16.6h9.19Zm-3.37-6.046h-5.82v-1.28h5.82v1.28Zm0,3.551h-5.82v-1.376h5.82v1.376Zm50.19,11.485V506.806H4194.2V503a0.722,0.722,0,0,1,.46-0.48,0.629,0.629,0,0,0,.37-0.448,0.445,0.445,0,0,0-.5-0.351l-4.18-.352v5.438h-11.46v14.365h3.84v-1.408h7.62v9.086h3.85v-9.086h7.68v1.28h3.85Zm-3.85-4.735h-7.68v-6.014h7.68v6.014Zm-11.53,0h-7.62v-6.014h7.62v6.014ZM4212.11,523v4.319h4.48V523h-4.48Zm0-19.036v6.5l1.14,10.557h2.2l1.14-10.557v-6.5h-4.48Z" transform="translate(-4010.5 -501.375)"/>
</svg>
