<svg xmlns="http://www.w3.org/2000/svg" width="118.68" height="21.78" viewBox="0 0 118.68 21.78">
  <defs>
    <style>
      .cls-1 {
        fill: #fff;
        fill-rule: evenodd;
      }
    </style>
  </defs>
  <path id="detail-btn.svg" class="cls-1" d="M2440.22,3843.41c0-5.46-3.08-9.89-8.71-9.89h-9.13v20.44h9.13C2437.19,3853.96,2440.22,3849.04,2440.22,3843.41Zm-4.09-.14c0,2.57-.87,7.5-4.73,7.5h-5.27v-14.05h5.27C2433.58,3836.72,2436.13,3838.51,2436.13,3843.27Zm23.06,10.69v-3.19h-12.15v-6.05h10.81v-2.94h-10.81v-5.06h11.7v-3.2h-15.45v20.44h15.9Zm19.97-17.24v-3.2h-18.34v3.2h7.28v17.24h3.78v-17.24h7.28Zm18.17,17.24-7.84-20.44h-4.29l-7.84,20.44h4.17l1.52-4.39h8.59l1.51,4.39h4.18Zm-6.78-7.56h-6.38l2.71-7.86,0.48-1.8,0.45,1.8Zm12.78,7.56v-20.44h-3.78v20.44h3.78Zm18.91,0v-3.19H2510.9v-17.25h-3.78v20.44h15.12Zm18.83-5.9c0-4.01-3.55-5.21-5.12-5.55l-5.32-1.17c-2.19-.48-2.89-1.4-2.89-2.58,0-2.66,3.81-2.72,4.48-2.72,1.04,0,4.32.17,4.46,3.25h3.78c-0.4-2.38-.84-3.36-2.02-4.42a9.153,9.153,0,0,0-6.16-2.02c-4,0-8.23,1.71-8.23,6.11,0,3.89,2.85,5.37,5.49,5.96l4.92,1.09c1.85,0.42,2.75.98,2.75,2.47,0,2.88-4.06,2.99-5.01,2.99-1.52,0-4.51-.36-4.68-3.64h-3.78c0.31,5.85,5.29,6.81,8.79,6.81C2537.94,3854.64,2541.07,3851.81,2541.07,3848.06Z" transform="translate(-2422.38 -3832.84)"/>
</svg>
