<svg xmlns="http://www.w3.org/2000/svg" width="286.062" height="37.969" viewBox="0 0 286.062 37.969">
  <defs>
    <style>
      .cls-1 {
        fill: #fff;
        fill-rule: evenodd;
      }
    </style>
  </defs>
  <path id="interview-head.svg" class="cls-1" d="M7.984,592.485V554.523H0.964v37.962h7.02Zm38.21,0V554.523h-6.76v21.945l0.728,8.476L37.3,578.7,22.325,554.523H14.837v37.962H21.6V570.54l-0.728-8.476,2.86,6.24,14.977,24.181h7.488Zm37.985-32.033v-5.929H50.118v5.929h13.52v32.033h7.02V560.452h13.52Zm33.337,32.033v-5.929H94.947V575.324H115.02v-5.46H94.947v-9.412h21.737v-5.929h-28.7v37.962h29.537Zm36.176,0c-1.04-.728-2.444-1.716-2.444-5.512v-3.849c0-7.124-3.588-8.216-7.28-8.736,3.224-.728,4.472-1.4,5.928-3.068a9.763,9.763,0,0,0,2.34-6.5c0-5.929-4.628-10.3-11.7-10.3H122.647v37.962h7.021V577.612h9.724c4.056,0,4.888,3.536,4.888,6.24v4.577c0,2.756.468,3.328,1.248,4.056h8.164Zm-8.944-26.729c0,3.9-2.392,5.928-6.292,5.928h-8.788V560.452H139.6C142.72,560.452,144.748,562.324,144.748,565.756Zm43.233-11.233h-7.488l-8.372,26.313-1.144,5.252-1.2-5.252-8.32-26.313h-7.54l13.52,37.962h7.021Zm10.555,37.962V554.523h-7.02v37.962h7.02Zm36.265,0v-5.929H212.232V575.324h20.073v-5.46H212.232v-9.412h21.737v-5.929h-28.7v37.962H234.8Zm52.219-37.962h-7.7l-6.761,25.585-0.78,4.628L271.263,580l-5.148-25.481h-7.488L253.479,580l-0.52,4.732-0.832-4.628-6.709-25.585h-7.7l11.649,37.962h7.072l5.2-25.481,0.728-5.252L263.1,567l5.2,25.481h7.073Z" transform="translate(-0.969 -554.531)"/>
</svg>
