<svg xmlns="http://www.w3.org/2000/svg" viewBox="0 0 20.6896 23.0839"><defs><style>.cls-1{fill:#004487;}</style></defs><title>lod_cop_2b</title><g id="レイヤー_2" data-name="レイヤー 2"><g id="レイヤー_1-2" data-name="レイヤー 1"><path class="cls-1" d="M17.7205,2.358c-1.7442,1.3392-5.479,4.9193-6.7641,6.1712l.062.0581a22.0275,22.0275,0,0,1,2.8769-.1746A6.5537,6.5537,0,0,1,20.69,14.9039c0,4.5994-4.591,8.18-10.1622,8.18-3.8855,0-5.7538-1.8922-5.7538-3.959a4.1772,4.1772,0,0,1,4.4687-3.9006c3.1534,0,5.05,2.2414,6.03,3.4056a5.0085,5.0085,0,0,0,2.019-3.8714c0-2.8525-2.9372-3.8132-4.8959-3.8132-3.1534,0-4.8356,1.0768-9.8556,5.9381L0,14.322a58.5907,58.5907,0,0,0,11.2931-10.45l-.062-.0585a30.07,30.07,0,0,1-7.0691.7281l-.7338-3.26c1.2231.0873,2.4178.1454,3.3963.1454A35.5054,35.5054,0,0,0,16.1288,0ZM9.3646,17.7857c-1.1628,0-1.53.7281-1.53,1.2226,0,.9608,1.2249,1.2812,2.51,1.2812a9.0383,9.0383,0,0,0,2.081-.2331C11.9667,19.27,11.0787,17.7857,9.3646,17.7857Z"/></g></g></svg>