<svg xmlns="http://www.w3.org/2000/svg" viewBox="0 0 27.5032 26.1787"><defs><style>.cls-1{fill:none;stroke:#004487;stroke-miterlimit:10;stroke-width:0.708px;}</style></defs><title>lod_cop_4a</title><g id="レイヤー_2" data-name="レイヤー 2"><g id="レイヤー_1-2" data-name="レイヤー 1"><path class="cls-1" d="M.6154,7.2046A19.052,19.052,0,0,0,5.1142.5383l3.3662.67c.3988.0873.6133.2331.6133.4077,0,.1454-.3067.5238-.98.67a1.0628,1.0628,0,0,1-.1524.32h6.181V4.2643h.062A18.2632,18.2632,0,0,0,16.2549.393l3.6108.553c.2747.0293.5513.2039.5513.4365,0,.2039-.3989.495-.7959.6116a5.3994,5.3994,0,0,0-.429.6111h7.9571V5.3709H22.4678c.1826.5238.5194,1.5426.7339,2.416l-3.7029.1453a17.8861,17.8861,0,0,0-.7038-2.5613H17.478a22.2652,22.2652,0,0,1-2.907,3.58L11.3874,7.1465a12.5269,12.5269,0,0,0,1.8364-1.7176H10.868a18.079,18.079,0,0,1,.6736,2.6779l-3.8252.0585a14.8946,14.8946,0,0,0-.5212-2.7364h-.888a26.3838,26.3838,0,0,1-2.448,3.26ZM18.9776,22.2538a12.2461,12.2461,0,0,0,2.1129.2912c1.3153,0,1.6822-.7277,1.8364-1.8045a48.816,48.816,0,0,0,.367-6.87H20.6917c-.8562,6.55-2.51,9.1988-5.57,11.8768L12.49,24.2626a3.779,3.779,0,0,1-3.0914,1.31H7.9911L6.277,22.37a22.2814,22.2814,0,0,0,2.3257.2038c.6736,0,1.317-.4077,1.317-.9315V20.2455H5.97A20.5937,20.5937,0,0,1,4.1659,25.66L.7076,24.4953a17.8637,17.8637,0,0,0,2.51-10.0718c0-1.9211-.1543-3.9587-.2464-5.4725h10.13V22.37a4.0133,4.0133,0,0,1-.09.6988l.06.0581c2.7847-2.4453,3.9174-6.1128,4.2542-9.2569H13.8673V10.9886h3.3962c-.03-.9315-.03-1.8918-.06-2.736l3.733.1161c.2765,0,.5513.1746.5513.32,0,.2327-.2446.5238-.5814.7569,0,.5531-.03,1.1061-.03,1.5426H26.66c-.03,5.0359-.062,9.2277-.7658,11.8475-.6735,2.5034-2.2033,2.7072-5.417,2.7653ZM6.3993,15.7626c-.03.64-.06,1.31-.1223,1.863H9.92v-1.863Zm-.0921-4.1044c.0319.6111.062,1.2227.062,1.7177H9.92V11.6582Z"/></g></g></svg>