<svg xmlns="http://www.w3.org/2000/svg" viewBox="0 0 24.942 25.9653"><defs><style>.cls-1{fill:#004487;}</style></defs><title>lod_cop_5b</title><g id="レイヤー_2" data-name="レイヤー 2"><g id="レイヤー_1-2" data-name="レイヤー 1"><path class="cls-1" d="M18.8213,22.9377l-.2145.175a17.2922,17.2922,0,0,1-6.3352-4.9778,11.7593,11.7593,0,0,1-6.3033,5.0939l-2.45-2.5325V25.47H0V4.1332H10.62c.03-2.416,0-3.1144,0-4.1332l3.2438.1746c.7037.0288,1.1929.0873,1.1929.3492,0,.2331-.2747.4365-.55.6111-.0921,1.1938-.1223,2.0668-.2144,2.9983h10.65V23.0254c0,2.736-2.1111,2.9106-4.8657,2.94ZM3.5186,7.2189v5.4143c3.5806-.9022,5.3567-2.0083,6.6419-5.4143Zm0,5.5016v7.7431c5.2947-1.4265,6.2448-4.57,6.7642-7.5392l-.0621-.0581a12.3486,12.3486,0,0,1-4.2524,2.6194Zm10.2845.1746c.55.0873.8562.1746.8562.4077s-.3669.4077-.7959.6111a8.8763,8.8763,0,0,1-.3067,1.2811,13.38,13.38,0,0,0,7.8668,5.1233V12.7205h-.0621l-2.2636,2.7072a15.6377,15.6377,0,0,1-6.5816-5.3271,12.6085,12.6085,0,0,1-1.7743,2.3288Zm7.62-5.6762H14.5972c1.7762,3.4348,4.194,4.3955,6.8263,5.1232Zm0,13.2447-2.0208,1.8922c.7037.0581,2.0208.1454,2.0208-1.048Z"/></g></g></svg>