<svg xmlns="http://www.w3.org/2000/svg" viewBox="0 0 26.7694 29.2717"><defs><style>.cls-1{fill:#004487;opacity:0.92;}</style></defs><title>lod_tex_3</title><g id="レイヤー_2" data-name="レイヤー 2"><g id="編集モード"><path class="cls-1" d="M26.7694,14.6212q0-6.855-3.553-10.7242Q19.6326,0,13.471,0A12.6929,12.6929,0,0,0,3.6689,4.0109Q-.0017,8.0794,0,14.65q0,6.6289,3.7835,10.6394a13.1887,13.1887,0,0,0,10.0311,3.9825,17.0409,17.0409,0,0,0,4.0419-.4554A12.1682,12.1682,0,0,0,21.325,27.38a14.1707,14.1707,0,0,0,3.0089-2.5034,19.8671,19.8671,0,0,0,1.8266-2.3376l-5.7328-2.6977a12.2837,12.2837,0,0,1-2.3994,2.5743,6.6369,6.6369,0,0,1-3.9839,1.1379,6.8436,6.8436,0,0,1-5.0735-1.9909,8.3837,8.3837,0,0,1-2.2358-5.4335H26.7415ZM7.1654,10.8947a7.3981,7.3981,0,0,1,.9177-2.1335A6.5049,6.5049,0,0,1,9.5293,7.1545,6.3429,6.3429,0,0,1,11.4077,6.13a6.7369,6.7369,0,0,1,2.2064-.3556q5.16,0,6.5061,5.12Z"/></g></g></svg>