<svg id="movie-btn.svg" xmlns="http://www.w3.org/2000/svg" width="88.094" height="21.88" viewBox="0 0 88.094 21.88">
  <defs>
    <style>
      .cls-1 {
        fill: #fff;
        fill-rule: evenodd;
      }
    </style>
  </defs>
  <path id="MOVIE" class="cls-1" d="M1006.45,5487.7v-20.54h-5.9l-3.642,14.18-0.475,3.27-0.476-3.27-3.609-14.18h-5.931v20.54h3.469v-18.04l4.5,18.04h4.085l4.5-18.04v18.04h3.47Zm23.64-10.27c0-6.64-4.22-10.95-10.24-10.95s-10.21,4.31-10.21,10.95c0,6.62,4.17,10.95,10.21,10.95S1030.09,5484.05,1030.09,5477.43Zm-3.97,0c0,4.67-2.57,7.54-6.27,7.54-3.52,0-6.24-2.7-6.24-7.54,0-4.87,2.75-7.51,6.24-7.51C1023.52,5469.92,1026.12,5472.76,1026.12,5477.43Zm22.8-10.27h-4.02l-4.51,14.24-0.61,2.84-0.65-2.84-4.47-14.24h-4.06l7.27,20.54h3.78Zm5.88,20.54v-20.54h-3.78v20.54h3.78Zm19.71,0v-3.2h-12.15v-6.08h10.8v-2.96h-10.8v-5.09h11.7v-3.21h-15.44v20.54h15.89Z" transform="translate(-986.406 -5466.5)"/>
</svg>
