<svg xmlns="http://www.w3.org/2000/svg" width="211.094" height="46.688" viewBox="0 0 211.094 46.688">
  <defs>
    <style>
      .cls-1 {
        fill: #fff;
        fill-rule: evenodd;
      }
    </style>
  </defs>
  <path id="title.svg" class="cls-1" d="M186.783,299.138c0-8.581-7.589-11.162-10.935-11.882l-11.354-2.52c-4.661-1.02-6.155-3-6.155-5.521,0-5.7,8.127-5.821,9.561-5.821,2.211,0,9.2.36,9.5,6.961h8.068c-0.837-5.1-1.793-7.2-4.3-9.481-4-3.66-9.5-4.32-13.146-4.32-8.546,0-17.569,3.66-17.569,13.081,0,8.341,6.095,11.522,11.712,12.782l10.518,2.34c3.944,0.9,5.856,2.1,5.856,5.281,0,6.181-8.665,6.421-10.7,6.421-3.226,0-9.62-.78-9.979-7.8h-8.067c0.657,12.542,11.294,14.582,18.763,14.582C180.09,313.24,186.783,307.179,186.783,299.138Zm45.242-2.1H223.48c-0.359,2.46-.777,3.96-2.749,5.881a11.339,11.339,0,0,1-7.948,3.24c-6.692,0-12.19-5.7-12.19-15.962,0-10.982,6.275-16.5,13.087-16.5,1.195,0,8.127,0,9.8,8.1h8.545c-0.717-6.961-6.095-15.242-18.525-15.242-15.536,0-21.452,12.181-21.452,23.763,0,12,6.394,22.923,20.855,22.923C225.691,313.24,231.248,304.359,232.025,297.038ZM273.573,311.8v-6.841H247.638V292H270.7v-6.3H247.638V274.835h24.979v-6.841H239.631V311.8h33.942Zm43.586,0V267.994h-7.768v25.323l0.837,9.782-3.287-7.2-17.21-27.9h-8.605V311.8h7.768V286.476l-0.836-9.781,3.286,7.2,17.21,27.9h8.605Zm43.711,0v-6.841H334.936V292H358v-6.3H334.936V274.835h24.978v-6.841H326.928V311.8H360.87Z" transform="translate(-149.781 -266.562)"/>
</svg>
