<svg id="catch-copy.svg" xmlns="http://www.w3.org/2000/svg" width="193" height="34.03" viewBox="0 0 193 34.03">
  <defs>
    <style>
      .cls-1 {
        fill: #104d8a;
        fill-rule: evenodd;
      }
    </style>
  </defs>
  <path id="長方形_1146" data-name="長方形 1146" class="cls-1" d="M648.871,1721.11c-0.046,0-.132,0-0.268.01-0.516.02-1.722,0.06-4.229,0.06h-9.249v-1.35h5.184c2.821,0,4.185.05,4.7,0.06,0.138,0.01.223,0.01,0.267,0.01a0.511,0.511,0,0,0,.609-0.64v-1.92a0.508,0.508,0,0,0-.609-0.63h-0.267c-0.513.02-1.877,0.07-4.7,0.07h-5.184v-1.25h7.055c2.727,0,4.008.05,4.555,0.06,0.136,0.01.221,0.01,0.266,0.01,0.529,0,.681-0.14.681-0.64v-2.06c0-.49-0.152-0.63-0.681-0.63h-0.266c-0.547.02-1.828,0.07-4.555,0.07h-2.275c0.168-.26.331-0.51,0.471-0.76a1.888,1.888,0,0,1,.548-0.66,0.834,0.834,0,0,0,.534-0.71,0.75,0.75,0,0,0-.68-0.67,32.284,32.284,0,0,0-3.338-.79l-0.228-.04-0.06.22a7.662,7.662,0,0,1-.554,1.59c-0.134.25-.255,0.49-0.371,0.72-0.207.41-.389,0.76-0.591,1.1H630.7a18.873,18.873,0,0,0-2.251-3.14,0.652,0.652,0,0,0-.863-0.26l-2.389.67a0.737,0.737,0,0,0-.559.36,0.626,0.626,0,0,0,.218.57,17.87,17.87,0,0,1,1.3,1.8h-1.717c-2.759,0-4.067-.05-4.56-0.07h-0.261a0.519,0.519,0,0,0-.646.63v2.06a0.522,0.522,0,0,0,.646.64c0.044,0,.127,0,0.261-0.01,0.493-.01,1.8-0.06,4.56-0.06h6.513v1.25H626.1c-2.822,0-4.185-.05-4.7-0.07h-0.266a0.523,0.523,0,0,0-.646.63v1.92a0.526,0.526,0,0,0,.646.64c0.044,0,.129,0,0.266-0.01,0.513-.01,1.876-0.06,4.7-0.06h4.859v1.35H622.1c-2.537,0-3.725-.04-4.233-0.06-0.134-.01-0.218-0.01-0.265-0.01a0.526,0.526,0,0,0-.645.64v2.09a0.526,0.526,0,0,0,.645.64c0.047,0,.131,0,0.265-0.01,0.508-.01,1.7-0.06,4.233-0.06h2.192a23.422,23.422,0,0,1-8.033,11.89l-0.262.2,0.277,0.19a8.141,8.141,0,0,1,1.85,1.76,0.956,0.956,0,0,0,1.761.3l0.188-.16a26.08,26.08,0,0,0,5.411-6.88v2.72c0,3.14-.023,5.43-0.068,6.82l0,0.18a0.52,0.52,0,0,0,.646.63h2.734a0.52,0.52,0,0,0,.646-0.63v-0.75h11.985v0.64c0,0.46.088,0.67,0.61,0.67h2.878c0.584,0,.645-0.2.645-0.67l0-.16c-0.022-1.25-.033-3.44-0.033-6.52v-3.62c0-2.76.023-3.99,0.031-4.48l0-.25c0-.46-0.061-0.67-0.645-0.67-0.045,0-.153.01-0.323,0.01-0.663.02-2.216,0.06-4.786,0.06H628.018c0.148-.48.266-0.89,0.362-1.28h15.994c2.507,0,3.713.05,4.229,0.06,0.136,0.01.222,0.01,0.268,0.01a0.512,0.512,0,0,0,.611-0.64v-2.09A0.512,0.512,0,0,0,648.871,1721.11Zm-19.43,8.81v-1.07h11.985v1.07H629.441Zm0,3.77v-1.07h11.985v1.07H629.441Zm11.985,2.73v1.07H629.441v-1.07h11.985Zm32.276-14.17a10.774,10.774,0,0,0-4.64,1.01c1.149-1.1,2.252-2.2,3.328-3.26,1.156-1.15,2.306-2.29,3.493-3.43a5.85,5.85,0,0,1,1.521-1.1,1.175,1.175,0,0,0,.758-1.07,1.45,1.45,0,0,0-.452-1.01,13.744,13.744,0,0,0-2.459-2.32,1.561,1.561,0,0,0-.973-0.33,1.6,1.6,0,0,0-.8.31,8.984,8.984,0,0,1-1.914.51c-2.706.52-5.9,0.99-8.137,1.21a16.74,16.74,0,0,1-3.3-.08l-0.363-.04,0.087,0.35a16.938,16.938,0,0,0,1.272,3.87,1.063,1.063,0,0,0,1.022.76,2.923,2.923,0,0,0,.807-0.2,10.9,10.9,0,0,1,1.474-.41c2.033-.42,4.279-0.86,6.269-1.23-1.46,1.74-2.971,3.34-5.133,5.54a86.734,86.734,0,0,1-8.524,7.85,0.819,0.819,0,0,0-.2,1.14,16.193,16.193,0,0,0,2.145,2.33,0.91,0.91,0,0,0,1.5-.07l0.644-.64c0.847-.84,1.648-1.64,2.472-2.37a14.418,14.418,0,0,1,9.049-3.7c3.229,0,5.4,2.05,5.4,5.11a5.005,5.005,0,0,1-3.259,5.05,6.713,6.713,0,0,0-6.925-5.08c-2.936,0-5.323,2.05-5.323,4.58,0,3.42,2.81,5.47,7.517,5.47,7.78,0,12.807-3.92,12.807-9.98C682.875,1725.86,679.1,1722.25,673.7,1722.25Zm-2.935,14.83a8.756,8.756,0,0,1-1.346.09c-1.076,0-2.881-.21-2.881-1.6a1.291,1.291,0,0,1,1.477-1.11C669.327,1734.46,670.3,1735.39,670.767,1737.08Zm22.925-4.55a0.88,0.88,0,0,0-1.34.09l-2.035,1.79a0.988,0.988,0,0,0-.309.59,0.76,0.76,0,0,0,.433.56,26.179,26.179,0,0,1,6.728,6.71,0.814,0.814,0,0,0,.716.47,1.144,1.144,0,0,0,.666-0.38l2.2-1.85a0.993,0.993,0,0,0,.446-0.75,1.071,1.071,0,0,0-.3-0.69A26.839,26.839,0,0,0,693.692,1732.53Zm54.963-20.4h-0.223c-0.489.02-1.787,0.07-4.562,0.07h-5.022a0.724,0.724,0,0,1,.026-0.07c0.036-.1.074-0.2,0.12-0.31a2.169,2.169,0,0,1,.483-0.87l0.064-.06a0.928,0.928,0,0,0,.369-0.72,0.8,0.8,0,0,0-.736-0.7c-0.751-.16-2.147-0.46-3.222-0.61l-0.237-.03-0.043.23a8.793,8.793,0,0,1-.525,1.87,20.9,20.9,0,0,1-2.073,3.82v-1.99c0-.49-0.153-0.63-0.682-0.63H732.13c-0.481.02-1.608,0.07-4.019,0.07h-3.6l0.191-.4a2.778,2.778,0,0,1,.51-0.87l0.063-.05a0.958,0.958,0,0,0,.458-0.75,0.756,0.756,0,0,0-.782-0.7c-0.3-.05-0.6-0.11-0.906-0.17-0.731-.13-1.487-0.27-2.377-0.4l-0.238-.03-0.043.23a6.689,6.689,0,0,1-.7,2,18.406,18.406,0,0,1-4.654,6.03l-0.277.24,0.331,0.16a7.553,7.553,0,0,1,1.955,1.42,1.648,1.648,0,0,0,1,.67,0.662,0.662,0,0,0,.3-0.08,0.835,0.835,0,0,0-.086.44c0,0.05,0,.15.011,0.3,0.02,0.48.062,1.46,0.062,3.11v2.38c0,6.65-.8,9.77-3.407,13.35l-0.161.22,0.238,0.14a8.077,8.077,0,0,1,2.028,1.69,1.408,1.408,0,0,0,.9.65,1.087,1.087,0,0,0,.757-0.63l0.063-.08a17.857,17.857,0,0,0,2.847-7.32h4.79v2.7c0,0.8-.207,1-1.009,1a26.961,26.961,0,0,1-2.711-.14l-0.484-.05,0.244,0.42a6.836,6.836,0,0,1,.871,2.41c0.247,1.22.409,1.26,1.612,1.26,2.06,0,3.309-.27,4.193-0.91a3.172,3.172,0,0,0,.549-0.6,8.587,8.587,0,0,1,1.253,1.21,1.366,1.366,0,0,0,.949.66,1.691,1.691,0,0,0,.988-0.52c4.253-3.52,6.294-7.86,6.8-14.51h3.439a46.914,46.914,0,0,1-.678,9.33c-0.263,1.3-.695,1.51-1.626,1.51a19.955,19.955,0,0,1-3.125-.24l-0.519-.09,0.261,0.45a9.1,9.1,0,0,1,.907,2.41c0.216,1.14.25,1.32,1.131,1.41,0.618,0.04,1.193.04,1.921,0.04,2.922,0,4.256-1.12,4.922-4.11a53.81,53.81,0,0,0,.833-10.7c0.012-.33.019-0.67,0.027-1.01,0.016-.67.032-1.37,0.08-2.05a0.646,0.646,0,0,0-.753-0.71c-0.048,0-.132.01-0.265,0.01-0.478.02-1.6,0.06-3.944,0.06h-2.45v-0.57a8.412,8.412,0,0,1,.2-2.3c0.028-.08.055-0.15,0.081-0.22a1.655,1.655,0,0,0,.148-0.64v-0.02c0.112-.02.24-0.05,0.385-0.09l2.34-.57a0.787,0.787,0,0,0,.575-0.33,0.594,0.594,0,0,0-.05-0.52c-0.416-.85-0.779-1.53-1.145-2.13h0.524c2.775,0,4.073.05,4.562,0.07h0.223a0.523,0.523,0,0,0,.646-0.63v-2.28A0.519,0.519,0,0,0,748.655,1712.13Zm-21.262,16.12v2.17h-4.372c0.052-.68.08-1.41,0.085-2.17h4.287Zm-4.25-3.34v-2.06h4.25v2.06h-4.25Zm17.279-6.35a33.2,33.2,0,0,0-3.36-.31l-0.5-.03,0.046,0.3a18.373,18.373,0,0,1,.213,3.26c0,0.25-.009.5-0.019,0.75,0,0.16-.011.31-0.014,0.46-2.328,0-3.439-.04-3.914-0.06-0.133,0-.218-0.01-0.265-0.01-0.5,0-.645.15-0.645,0.68v2.48c0,0.52.145,0.68,0.645,0.68,0.047,0,.132-0.01.265-0.01,0.464-.02,1.532-0.06,3.747-0.07-0.442,5.23-1.887,8.24-5.4,11.16,0.013-.17.02-0.35,0.02-0.53,0-.69-0.008-1.41-0.017-2.15-0.009-.8-0.019-1.63-0.019-2.47v-9.34c0-1.65.041-2.63,0.061-3.11,0.007-.15.011-0.25,0.011-0.3a0.514,0.514,0,0,0-.61-0.64c-0.064,0-.161,0-0.308.01-0.431.02-1.329,0.06-3.146,0.06h-3.85c-1.919,0-2.814-.04-3.2-0.06-0.11-.01-0.18-0.01-0.221-0.01a1.193,1.193,0,0,0-.355.04c0.134-.11.283-0.26,0.465-0.44a22.005,22.005,0,0,0,2.619-3.3h1.76a17.347,17.347,0,0,1,1.171,2.95c0.165,0.59.459,0.57,1.007,0.46l2.474-.46a0.764,0.764,0,0,0,.566-0.28,0.692,0.692,0,0,0-.054-0.61l-0.266-.55c-0.236-.5-0.479-1.01-0.754-1.51,2.088,0.01,3.1.05,3.553,0.06,0.136,0.01.216,0.01,0.267,0.01-0.322.41-.66,0.81-1.015,1.19l-0.244.26,0.332,0.13a9.847,9.847,0,0,1,2.033,1.14,2,2,0,0,0,1.049.55,1.344,1.344,0,0,0,.915-0.73,19.52,19.52,0,0,0,1.75-2.61h1.939a20.794,20.794,0,0,1,1.385,2.98A0.658,0.658,0,0,0,740.422,1718.56Zm49.785-3.56c0-.17.007-0.28,0.007-0.32,0-.52-0.144-0.67-0.646-0.67-0.056,0-.156,0-0.312.01-0.555.01-1.856,0.06-4.509,0.06h-7.6c0.058-.46.116-0.97,0.146-1.52a4.955,4.955,0,0,1,.262-1.78,1.737,1.737,0,0,0,.242-0.75,0.8,0.8,0,0,0-.9-0.64c-1.089-.14-2.373-0.21-3.616-0.28l-0.306-.02,0.044,0.3a21.576,21.576,0,0,1,.034,4.35l-0.021.34h-7.322c-2.652,0-3.953-.05-4.509-0.06-0.157-.01-0.256-0.01-0.312-0.01-0.5,0-.645.15-0.645,0.67,0,0.04,0,.14.007,0.31,0.017,0.7.065,2.57,0.065,5.8v14.38c0,3.18-.047,5.05-0.065,5.76,0,0.19-.007.3-0.007,0.35,0,0.47.15,0.61,0.645,0.61h3.13c0.5,0,.646-0.14.646-0.61,0-.04,0-0.14-0.008-0.31-0.017-.64-0.064-2.34-0.064-5.16v-1.24l0.18,0.13a6.767,6.767,0,0,1,1.875,2.02,1.258,1.258,0,0,0,.933.87,2.051,2.051,0,0,0,.849-0.3l0.17-.09a16.723,16.723,0,0,0,6.885-6.18,18.182,18.182,0,0,0,6.485,5.51l0.186,0.09a1.815,1.815,0,0,0,.789.29c0.394,0,.589-0.39.84-1a9,9,0,0,1,1.639-2.41l0.273-.27-0.361-.13c-4.2-1.57-6.6-3.37-8.244-6.17l0.017-.09a5.386,5.386,0,0,1,.459-1.53,1.109,1.109,0,0,0,.229-0.65,0.792,0.792,0,0,0-.856-0.74c-0.88-.14-1.635-0.22-2.59-0.32l-1.01-.1v0.27a14.193,14.193,0,0,1-.531,3.56c-0.842,2.95-3.6,5.35-7.978,6.94l-0.239.09v-9.76l0.1,0.07a7.107,7.107,0,0,1,1.706,2.07,1.225,1.225,0,0,0,.935.87,2.494,2.494,0,0,0,.991-0.39,17.542,17.542,0,0,0,6.8-6.34,17.807,17.807,0,0,0,7.252,6.14,2.534,2.534,0,0,0,.931.3c0.468,0,.624-0.39.881-1.04a8.1,8.1,0,0,1,1.5-2.38l0.173-.2v12.79a0.844,0.844,0,0,1-1.045,1,25.431,25.431,0,0,1-3.633-.25l-0.54-.08,0.292,0.46a8.735,8.735,0,0,1,.977,2.74c0.24,1.18.36,1.28,1.609,1.28,3.086,0,4.581-.27,5.515-0.98a3.755,3.755,0,0,0,1.175-3.11c0-.46-0.011-1.03-0.024-1.72-0.022-1.14-.048-2.56-0.048-4.46V1721C790.142,1717.71,790.19,1715.74,790.207,1715Zm-25.611,9.32v-6.41h7.633c-1.074,2.73-3.334,4.65-7.474,6.35Zm20.979-.82a14.207,14.207,0,0,1-8.1-5.59h8.387v5.68Zm17.958,8.52a5.361,5.361,0,1,0,5.468,5.36A5.418,5.418,0,0,0,803.533,1732.02Zm0,8.06a2.7,2.7,0,1,1,2.736-2.7A2.658,2.658,0,0,1,803.533,1740.08Z" transform="translate(-616 -1708.72)"/>
</svg>
