<svg id="cm-head.svg" xmlns="http://www.w3.org/2000/svg" width="127.88" height="32.69" viewBox="0 0 127.88 32.69">
  <defs>
    <style>
      .cls-1 {
        fill: #fff;
        fill-rule: evenodd;
      }
    </style>
  </defs>
  <path id="TVCM" class="cls-1" d="M2454.33,1130.31v-4.79h-27.51v4.79h10.92v25.87h5.67v-25.87h10.92Zm32.07-4.79h-6.05l-6.76,21.26-0.93,4.24-0.96-4.24-6.73-21.26h-6.09l10.93,30.66h5.67Zm31.2,20.33h-6.01a6.021,6.021,0,0,1-1.93,4.12,7.993,7.993,0,0,1-5.59,2.27c-4.7,0-8.57-3.99-8.57-11.18,0-7.69,4.42-11.55,9.2-11.55a6.639,6.639,0,0,1,6.89,5.67h6.01c-0.5-4.87-4.28-10.67-13.02-10.67-10.92,0-15.08,8.53-15.08,16.64,0,8.4,4.49,16.04,14.66,16.04C2513.15,1157.19,2517.05,1150.98,2517.6,1145.85Zm37.1,10.33v-30.66h-8.87l-5.46,21.17-0.71,4.87-0.72-4.87-5.42-21.17h-8.9v30.66h5.21v-26.92l6.76,26.92h6.13l6.77-26.92v26.92h5.21Z" transform="translate(-2426.81 -1124.5)"/>
</svg>
