<svg id="debut.svg" xmlns="http://www.w3.org/2000/svg" width="157.813" height="15.843" viewBox="0 0 157.813 15.843">
  <defs>
    <style>
      .cls-1 {
        fill: #048;
        fill-rule: evenodd;
      }
    </style>
  </defs>
  <path id="_2019.11.1_DEBUT" data-name="2019.11.1 DEBUT" class="cls-1" d="M621.876,286.6q1.026-1.152,1.7-2a11.863,11.863,0,0,0,1.022-1.46,4.749,4.749,0,0,0,.688-2.412,4.156,4.156,0,0,0-1.479-3.242,5.263,5.263,0,0,0-3.635-1.309q-4.487,0-5.062,4.766h2.382q0.35-2.706,2.752-2.706a2.755,2.755,0,0,1,1.93.713,2.3,2.3,0,0,1,.781,1.768,3.16,3.16,0,0,1-.585,1.65,12.475,12.475,0,0,1-.837,1.162q-0.551.694-1.361,1.641l-5.5,6.338h10.648v-2.139h-5.9Zm7.065,3.213a4.831,4.831,0,0,0,3.84,1.943,4.775,4.775,0,0,0,3.82-1.943,10.556,10.556,0,0,0,0-11.69,4.746,4.746,0,0,0-7.66,0,8.778,8.778,0,0,0-1.766,5.752,9.086,9.086,0,0,0,1.766,5.938h0Zm1.518-9.951a2.473,2.473,0,0,1,4.644,0,9.552,9.552,0,0,1,0,8.193,2.476,2.476,0,0,1-4.654,0,8.573,8.573,0,0,1-.913-4.17,8,8,0,0,1,.923-4.023h0Zm12.082,11.65h2.392V276.434h-3.819l-1.315,2.139h2.742v12.939Zm14.594-6.631a6.417,6.417,0,0,0,1.56-3.8,4.5,4.5,0,0,0-1.6-3.437,5.4,5.4,0,0,0-3.768-1.465,5.233,5.233,0,0,0-3.737,1.484,4.728,4.728,0,0,0-1.551,3.555,4.769,4.769,0,0,0,4.723,4.736c0.089,0,.206-0.006.349-0.019s0.319-.033.524-0.059l-3.789,4.912,1.756,1.241Zm-5.884-5.81a3.107,3.107,0,0,1,4.23,0,2.755,2.755,0,0,1,0,4.043,3.109,3.109,0,0,1-4.24-.01,2.718,2.718,0,0,1-.873-2.051,2.646,2.646,0,0,1,.883-1.982h0Zm9.466,12.324a1.507,1.507,0,0,0,2.023,0,1.31,1.31,0,0,0,0-1.924,1.466,1.466,0,0,0-2.013,0,1.264,1.264,0,0,0-.421.947A1.293,1.293,0,0,0,660.717,291.4Zm8.593,0.117H671.7V276.434h-3.819l-1.315,2.139h2.742v12.939Zm9.509,0h2.393V276.434h-3.82l-1.315,2.139h2.742v12.939Zm7.616-.117a1.505,1.505,0,0,0,2.022,0,1.31,1.31,0,0,0,0-1.924,1.465,1.465,0,0,0-2.012,0,1.264,1.264,0,0,0-.421.947A1.293,1.293,0,0,0,686.435,291.4Zm8.593,0.117h2.392V276.434H693.6l-1.315,2.139h2.742v12.939Zm19.375,0a12.843,12.843,0,0,0,3.728-.42,7.576,7.576,0,0,0,2.69-1.494,7.534,7.534,0,0,0,.1-11.221,7.163,7.163,0,0,0-2.7-1.494,12.711,12.711,0,0,0-3.779-.449h-3.327v15.078H714.4Zm-0.893-12.939h1.078a6.842,6.842,0,0,1,4.631,1.376,5.117,5.117,0,0,1,1.746,4.024,5.037,5.037,0,0,1-1.767,3.994,5.5,5.5,0,0,1-1.93,1.084,9.426,9.426,0,0,1-2.68.322H713.51v-10.8Zm21.309-2.139h-8.748v15.078h8.748v-2.139h-6.356v-5.039h6.171V282.2h-6.171v-3.623h6.356v-2.139Zm6.451,15.078a10.834,10.834,0,0,0,2.7-.283,4.365,4.365,0,0,0,1.776-1.045,4.094,4.094,0,0,0,.575-5.352,3.816,3.816,0,0,0-1.992-1.435,3.492,3.492,0,0,0,1.3-2.744,4.391,4.391,0,0,0-1.458-3.194,3.877,3.877,0,0,0-1.612-.791,10.963,10.963,0,0,0-2.536-.234h-2.382v15.078h3.624Zm-1.232-12.988h0.842a2.747,2.747,0,0,1,1.848.551,2.022,2.022,0,0,1,.637,1.617,2.117,2.117,0,0,1-.621,1.655,2.863,2.863,0,0,1-1.956.561h-0.75v-4.384Zm0,6.289h1.212a4.145,4.145,0,0,1,2.68.654,2.085,2.085,0,0,1,.77,1.641,2.053,2.053,0,0,1-.8,1.66,3.809,3.809,0,0,1-2.382.605h-1.479v-4.56Zm9.2-8.379v9.707a5.286,5.286,0,0,0,1.561,3.926,6.259,6.259,0,0,0,8.615,0,5.289,5.289,0,0,0,1.56-3.926v-9.707h-2.392v9.075a4.726,4.726,0,0,1-.667,2.84,3.687,3.687,0,0,1-5.617,0,4.8,4.8,0,0,1-.667-2.84v-9.075h-2.393Zm23.229,2.139v-2.139H762.8v2.139h3.645v12.939h2.392V278.573h3.635Z" transform="translate(-614.656 -276.188)"/>
</svg>
