<svg xmlns="http://www.w3.org/2000/svg" width="344.687" height="40.438" viewBox="0 0 344.687 40.438">
  <defs>
    <style>
      .cls-1 {
        fill: #fff;
        fill-rule: evenodd;
      }
    </style>
  </defs>
  <path id="howto-head.svg" class="cls-1" d="M31.958,316.485V278.523h-7.02v14.769H7.621V278.523H0.6v37.962h7.02V299.22H24.937v17.265h7.02ZM75.528,297.5c0-12.272-7.852-20.229-19.033-20.229S37.514,285.232,37.514,297.5c0,12.22,7.748,20.229,18.981,20.229S75.528,309.724,75.528,297.5Zm-7.384,0c0,8.632-4.784,13.937-11.649,13.937-6.552,0-11.6-4.993-11.6-13.937,0-9,5.1-13.885,11.6-13.885C63.307,283.619,68.144,288.872,68.144,297.5Zm57.694-18.981h-7.7l-6.76,25.585-0.78,4.628L110.081,304l-5.148-25.481H97.445L92.3,304l-0.52,4.732-0.832-4.628-6.708-25.585h-7.7l11.648,37.962H95.26l5.2-25.481,0.728-5.252L101.917,291l5.2,25.481h7.072Zm53.507,5.929v-5.929H145.283v5.929H158.8v32.033h7.02V284.452h13.521ZM218.521,297.5c0-12.272-7.852-20.229-19.032-20.229s-18.981,7.957-18.981,20.229c0,12.22,7.748,20.229,18.981,20.229S218.521,309.724,218.521,297.5Zm-7.384,0c0,8.632-4.784,13.937-11.648,13.937-6.552,0-11.6-4.993-11.6-13.937,0-9,5.1-13.885,11.6-13.885C206.3,283.619,211.137,288.872,211.137,297.5Zm62.3,4V278.523h-7.02V302.34c0,5.876-3.016,9.049-8.736,9.049-4.889,0-8.581-2.5-8.581-9.049V278.523h-7.02v22.985c0,10.3,5.616,16.225,15.809,16.225C266.048,317.733,273.432,313.521,273.432,301.508Zm37.2,4c0-7.436-6.6-9.672-9.516-10.3l-9.88-2.184c-4.057-.884-5.357-2.6-5.357-4.784,0-4.941,7.073-5.045,8.321-5.045,1.924,0,8.008.312,8.268,6.033h7.02c-0.728-4.42-1.56-6.241-3.744-8.217-3.484-3.172-8.268-3.744-11.44-3.744-7.437,0-15.289,3.172-15.289,11.337,0,7.228,5.3,9.984,10.193,11.076l9.152,2.028c3.432,0.78,5.1,1.82,5.1,4.576,0,5.357-7.54,5.565-9.308,5.565-2.808,0-8.373-.676-8.685-6.761h-7.02c0.572,10.869,9.828,12.637,16.329,12.637C304.808,317.733,310.632,312.481,310.632,305.512Zm34.648,10.973v-5.929H322.711V299.324h20.073v-5.46H322.711v-9.412h21.737v-5.929h-28.7v37.962H345.28Z" transform="translate(-0.594 -277.281)"/>
</svg>
