<svg xmlns="http://www.w3.org/2000/svg" viewBox="0 0 25.65 26.6954"><defs><style>.cls-1{fill:none;stroke:#004487;stroke-miterlimit:10;stroke-width:0.708px;}</style></defs><title>lod_cop_5a</title><g id="レイヤー_2" data-name="レイヤー 2"><g id="レイヤー_1-2" data-name="レイヤー 1"><path class="cls-1" d="M19.1753,23.3113l-.2145.175a17.2925,17.2925,0,0,1-6.3352-4.9779,11.7591,11.7591,0,0,1-6.3033,5.094L3.8726,21.07v4.774H.354V4.5068h10.62c.03-2.416,0-3.1144,0-4.1332l3.2438.1746C14.9211.577,15.41.6355,15.41.8974c0,.2331-.2747.4365-.55.6111-.0921,1.1938-.1223,2.0668-.2144,2.9983h10.65V23.399c0,2.736-2.1111,2.9106-4.8657,2.94ZM3.8726,7.5924v5.4144c3.5806-.9023,5.3567-2.0084,6.6419-5.4144Zm0,5.5017v7.7431c5.2947-1.4265,6.2448-4.57,6.7642-7.5393l-.0621-.058a12.35,12.35,0,0,1-4.2524,2.6194Zm10.2845.1746c.55.0873.8562.1746.8562.4077s-.3669.4077-.7959.6111a8.8763,8.8763,0,0,1-.3067,1.2811,13.38,13.38,0,0,0,7.8668,5.1232V13.0941h-.0621l-2.2636,2.7072A15.6377,15.6377,0,0,1,12.87,10.4742a12.6111,12.6111,0,0,1-1.7743,2.3287Zm7.62-5.6763H14.9512c1.7762,3.4348,4.194,4.3956,6.8263,5.1232Zm0,13.2448-2.0208,1.8922c.7037.0581,2.0208.1454,2.0208-1.048Z"/></g></g></svg>