<svg xmlns="http://www.w3.org/2000/svg" viewBox="0 0 26.5338 25.3542"><defs><style>.cls-1{fill:#004487;}</style></defs><title>lod_cop_4b</title><g id="レイヤー_2" data-name="レイヤー 2"><g id="レイヤー_1-2" data-name="レイヤー 1"><path class="cls-1" d="M0,6.8116A19.0526,19.0526,0,0,0,4.4988.1454l3.3662.67c.3988.0873.6133.2331.6133.4077,0,.1454-.3067.5238-.98.67a1.0628,1.0628,0,0,1-.1524.32h6.181V3.8713h.062A18.2678,18.2678,0,0,0,15.64,0L19.25.553c.2747.0293.5513.2039.5513.4365,0,.2039-.3989.495-.7959.6116a5.3994,5.3994,0,0,0-.429.6111h7.9571V4.9779H21.8524c.1826.5238.5194,1.5426.7339,2.416l-3.7029.1453A17.8861,17.8861,0,0,0,18.18,4.9779h-1.317a22.26,22.26,0,0,1-2.907,3.58L10.772,6.7536a12.5322,12.5322,0,0,0,1.8364-1.7177H10.2526a18.079,18.079,0,0,1,.6736,2.6779L7.101,7.7723A14.8962,14.8962,0,0,0,6.58,5.0359h-.888a26.3866,26.3866,0,0,1-2.448,3.26ZM18.3622,21.8609a12.2549,12.2549,0,0,0,2.1129.2911c1.3153,0,1.6822-.7276,1.8364-1.8045a48.816,48.816,0,0,0,.367-6.87H20.0763c-.8562,6.55-2.51,9.1988-5.5695,11.8768L11.8745,23.87a3.7787,3.7787,0,0,1-3.0913,1.31H7.3757L5.6616,21.9774a22.2814,22.2814,0,0,0,2.3257.2038c.6736,0,1.317-.4076,1.317-.9314V19.8525H5.355a20.5937,20.5937,0,0,1-1.8045,5.4144L.0922,24.1023a17.8637,17.8637,0,0,0,2.51-10.0718c0-1.9211-.1543-3.9587-.2464-5.4725h10.13V21.9774a4.0133,4.0133,0,0,1-.09.6988l.06.0581c2.7847-2.4453,3.9174-6.1128,4.2542-9.2569H13.2518V10.5956h3.3963c-.03-.9315-.03-1.8918-.06-2.736l3.733.1161c.2765,0,.5513.1746.5513.32,0,.2327-.2446.5238-.5814.7569,0,.5531-.03,1.1061-.03,1.5426h5.7839c-.03,5.0359-.062,9.2277-.7658,11.8475-.6735,2.5034-2.2033,2.7072-5.417,2.7653ZM5.7839,15.37c-.03.64-.06,1.31-.1223,1.863H9.3043V15.37Zm-.0921-4.1044c.0319.6111.062,1.2227.062,1.7177h3.55V11.2652Z"/></g></g></svg>