<svg xmlns="http://www.w3.org/2000/svg" viewBox="0 0 197.6263 74.2548"><defs><style>.cls-1{opacity:0.92;}.cls-2{fill:#004487;}</style></defs><title>lod_logo</title><g id="レイヤー_2" data-name="レイヤー 2"><g id="編集モード"><g class="cls-1"><path class="cls-2" d="M150.1715,48.9271c-5.87-3.13-8.5474-3.5218-17.9267-3.68h-66.86c-9.3792.158-12.055.55-17.9268,3.68C42.524,51.5632,0,74.2548,0,74.2548H24.6162c9.3777,0,13.1318-1.0089,17.9172-3.6735,3.0316-1.6906,23.789-12.7082,28.701-15.2084,5.4289-2.7721,7.975-3.4981,13.0275-3.9661,1.1877-.1108,5.1395-.2942,6.5217-.2942h16.0638c1.3807,0,5.3358.1834,6.5171.2942,5.0556.468,7.6,1.194,13.0307,3.9661,4.9087,2.5,25.6724,13.5178,28.7024,15.2084,4.7854,2.6646,8.54,3.6735,17.9141,3.6735h24.6146S155.1055,51.5632,150.1715,48.9271Z"/><path class="cls-2" d="M173.0117,0c-9.3744,0-13.1287,1.009-17.9141,3.6784-3.03,1.6873-23.7937,12.7035-28.7024,15.2036-5.4306,2.7691-7.9751,3.5029-13.0307,3.9678-1.1813.1107-5.1364.2973-6.5171.2973H90.7836c-1.3822,0-5.334-.1866-6.5217-.2973-5.0525-.4649-7.5986-1.1987-13.0275-3.9678-4.912-2.5-25.6694-13.5163-28.701-15.2036C37.748,1.009,33.9939,0,24.6162,0H0S42.524,22.6916,47.4578,25.3279c5.8718,3.1342,8.5476,3.5234,17.9268,3.6847h66.86c9.3793-.1613,12.0566-.55,17.9267-3.6847C155.1055,22.6916,197.6263,0,197.6263,0Z"/><path class="cls-2" d="M38.3206,42.1776c1.9751,0,3.1548-.7321,3.1548-3.1343V32.0772s-2.77,1.0153-3.1643,1.243c-.3242.1867-.3922.2674-.3922.6056v5.2931c0,1.156-.457,1.5118-1.406,1.5118H28.0651c-.9551,0-1.4074-.3558-1.4074-1.5118V33.9258c0-.3382-.0727-.4189-.3938-.6056-.3937-.2277-3.1628-1.243-3.1628-1.243v6.9661c0,2.4022,1.175,3.1343,3.1534,3.1343Z"/><path class="cls-2" d="M108.8021,40.7307c-.2957,0-.3653-.0918-.3653-.3669V37.8667H122.263V36.39H108.4368V35.0408c0-1.1592.4539-1.5119,1.4058-1.5119h14.0081c-.16-.1865-.37-.4174-.6279-.6783a2.2151,2.2151,0,0,0-1.9134-.7734H108.03c-1.9784,0-3.1534.737-3.1534,3.1344v6.509c0,.359.12.457.46.457h15.9722a2.22,2.22,0,0,0,1.9134-.7732c.2578-.26.4666-.49.6232-.6737Z"/><path class="cls-2" d="M47.5275,36.39c-.1866,0-.2752-.0664-.2752-.2751V35.0408c0-1.1592.4539-1.5119,1.4107-1.5119H61.798c-.1612-.1865-.37-.4174-.6245-.6783a2.22,2.22,0,0,0-1.9136-.7734H46.8491c-1.9767,0-3.155.737-3.155,3.1344v2.1965c0,.367.1407.4586.4586.4586H58.0818c.1961,0,.2751.0729.2751.2753v1.0769c0,1.156-.4553,1.5118-1.4074,1.5118H43.808c.16.1835.37.4142.6231.6737a2.2368,2.2368,0,0,0,1.9183.7732H58.7618c1.972,0,3.15-.7321,3.15-3.1343v-2.2c0-.3478-.12-.4539-.46-.4539Z"/><path class="cls-2" d="M69.199,40.7307c-.9551,0-1.4074-.3558-1.4074-1.5118V35.0408c0-1.1592.4523-1.5119,1.4074-1.5119H82.4163c-.16-.1865-.3684-.4174-.6229-.6783a2.2331,2.2331,0,0,0-1.9167-.7734H67.3884c-1.9784,0-3.1534.737-3.1534,3.1344v6.509c0,.3543.13.457.457.457H79.8767a2.2376,2.2376,0,0,0,1.9167-.7732c.2545-.26.4633-.49.6229-.6737Z"/><path class="cls-2" d="M89.6814,40.7307c-.9536,0-1.4091-.3558-1.4091-1.5118V33.9258c0-.3382-.07-.4189-.3953-.6056-.3922-.2277-3.1628-1.243-3.1628-1.243v9.6434c0,.3733.098.457.46.457h15.025a2.23,2.23,0,0,0,1.9167-.7732c.2529-.26.4633-.49.6246-.6737Z"/><path class="cls-2" d="M14.794,37.8667a2.4609,2.4609,0,0,0,2.0622-.7337c.1692-.1676.7543-.7623,1.4644-1.48v6.5249H20.737V32.539c0-.3763-.0776-.4618-.4586-.4618H18.2241a2.2105,2.2105,0,0,0-1.9768.737c-.28.2863-1.466,1.4928-2.7279,2.7754a1.9248,1.9248,0,0,1-1.2651.7227,5.9922,5.9922,0,0,1-1.039.0806H9.5264a6.02,6.02,0,0,1-1.0437-.0806A1.9213,1.9213,0,0,1,7.2175,35.59c-1.2651-1.2826-2.45-2.4891-2.7327-2.7754a2.1934,2.1934,0,0,0-1.9719-.737H.46c-.3828,0-.46.0855-.46.4618v9.6386H2.4164V35.6527c.7132.718,1.2968,1.3127,1.4628,1.48a2.4777,2.4777,0,0,0,2.0684.7337Z"/><path class="cls-2" d="M168.6171,42.1776c1.9752,0,3.1518-.7321,3.1518-3.1343V32.0772s-2.7644,1.0153-3.1613,1.243c-.3258.1867-.3939.2674-.3939.6056v5.2931c0,1.156-.4522,1.5118-1.4073,1.5118h-8.4479c-.9551,0-1.4074-.3558-1.4074-1.5118V33.9258c0-.3382-.068-.4189-.3922-.6056-.3985-.2277-3.1628-1.243-3.1628-1.243v6.9661c0,2.4022,1.1781,3.1343,3.1533,3.1343Z"/><path class="cls-2" d="M136.69,36.39c-.185,0-.2736-.0664-.2736-.2751V35.0408c0-1.1592.4523-1.5119,1.4074-1.5119h13.1353c-.1582-.1865-.3654-.4174-.6232-.6783a2.224,2.224,0,0,0-1.915-.7734H136.0133c-1.9783,0-3.1533.737-3.1533,3.1344v2.1965c0,.367.1344.4586.4569.4586h13.926c.196,0,.2751.0729.2751.2753v1.0769c0,1.156-.4555,1.5118-1.4059,1.5118h-13.14c.1581.1835.3668.4142.623.6737a2.2256,2.2256,0,0,0,1.9136.7732H147.92c1.9784,0,3.1565-.7321,3.1565-3.1343v-2.2c0-.3478-.1218-.4539-.4617-.4539Z"/><path class="cls-2" d="M177.6943,32.558c0-.359-.1155-.4586-.457-.4586H174.133v9.6165c0,.3747.0949.4586.46.4586h3.1011Z"/><path class="cls-2" d="M194.7608,32.0994H182.2646c-1.4043,0-2.4069.3749-2.8624,1.4454h7.3315v8.1711c0,.3747.0979.4586.46.4586h3.098v-8.63h7.3346C197.1677,32.4743,196.17,32.0994,194.7608,32.0994Z"/></g></g></g></svg>