<svg xmlns="http://www.w3.org/2000/svg" viewBox="0 0 29.2278 26.2599"><defs><style>.cls-1{fill:none;stroke:#004487;stroke-miterlimit:10;stroke-width:0.708px;}</style></defs><title>lod_cop_1a</title><g id="レイヤー_2" data-name="レイヤー 2"><g id="レイヤー_1-2" data-name="レイヤー 1"><path class="cls-1" d="M.6258,19.2108a16.4407,16.4407,0,0,0,7.927-6.7531H1.6362V9.9832H13.5108V8.7318H5.3693V6.49h8.1415V5.355H2.8593V2.9682H8.92A12.15,12.15,0,0,0,7.42.9014L10.8164.3771A18.3679,18.3679,0,0,1,12.807,2.9682h4.8959A24.4461,24.4461,0,0,0,18.9579.4644l3.3059.2912c.4272.0292.6718.2038.6718.35,0,.2034-.335.4946-.8562.64-.2144.4072-.4591.9022-.6735,1.2226h6.3972V5.355H17.4282V6.49h7.59V8.7318h-7.59V9.9832H28.8738v2.4745H12.5926a11.08,11.08,0,0,1-.7959,1.2515h13.282V25.8186H21.7426v-.5238H11.3376v.6111H8.0317V18.2793a19.0586,19.0586,0,0,1-4.7736,3.4641Zm21.1168-2.1829V15.9218H11.3376v1.1061Zm0,2.9691V18.92H11.3376V19.997Zm0,2.9983V21.8888H11.3376v1.1065Z"/></g></g></svg>