<svg xmlns="http://www.w3.org/2000/svg" viewBox="0 0 21.5888 23.8665"><defs><style>.cls-1{fill:none;stroke:#004487;stroke-miterlimit:10;stroke-width:0.708px;}</style></defs><title>lod_cop_2a</title><g id="レイヤー_2" data-name="レイヤー 2"><g id="レイヤー_1-2" data-name="レイヤー 1"><path class="cls-1" d="M18.2657,2.7866c-1.7442,1.3392-5.4791,4.9193-6.7642,6.1712l.0621.0581a22.0275,22.0275,0,0,1,2.8769-.1746,6.5537,6.5537,0,0,1,6.7943,6.4912c0,4.5994-4.591,8.18-10.1622,8.18-3.8856,0-5.7539-1.8922-5.7539-3.959a4.1772,4.1772,0,0,1,4.4687-3.9006c3.1535,0,5.05,2.2414,6.03,3.4056a5.0085,5.0085,0,0,0,2.0189-3.8714c0-2.8525-2.9371-3.8132-4.8958-3.8132-3.1535,0-4.8357,1.0768-9.8556,5.9381l-2.54-2.5614A58.5937,58.5937,0,0,0,11.8383,4.3l-.062-.0585A30.0705,30.0705,0,0,1,4.7072,4.97L3.9733,1.71c1.2231.0873,2.4179.1454,3.3963.1454A35.5048,35.5048,0,0,0,16.6739.4286ZM9.91,18.2143c-1.1628,0-1.53.7281-1.53,1.2226,0,.9607,1.2249,1.2811,2.51,1.2811a9.0391,9.0391,0,0,0,2.081-.2331C12.5119,19.6988,11.6238,18.2143,9.91,18.2143Z"/></g></g></svg>