<svg xmlns="http://www.w3.org/2000/svg" viewBox="0 0 28.2479 25.5288"><defs><style>.cls-1{fill:#004487;}</style></defs><title>lod_cop_1b</title><g id="レイヤー_2" data-name="レイヤー 2"><g id="レイヤー_1-2" data-name="レイヤー 1"><path class="cls-1" d="M0,18.8337a16.4417,16.4417,0,0,0,7.927-6.7531H1.01V9.6061H12.8849V8.3546H4.7434V6.1132h8.1415V4.9779H2.2335V2.5911h6.06a12.1412,12.1412,0,0,0-1.5-2.0669L10.1906,0a18.3564,18.3564,0,0,1,1.9906,2.5911h4.8959A24.4871,24.4871,0,0,0,18.3321.0873L21.638.3784c.4271.0293.6718.2039.6718.35,0,.2034-.3351.4945-.8562.64-.2145.4073-.4591.9023-.6736,1.2227h6.3973V4.9779H16.8023V6.1132h7.59V8.3546h-7.59V9.6061H28.2479v2.4745H11.9667a11.0654,11.0654,0,0,1-.7959,1.2515h13.282V25.4415h-3.336v-.5238H10.7117v.6111H7.4059V17.9022a19.0622,19.0622,0,0,1-4.7736,3.4641Zm21.1168-2.1829V15.5447H10.7117v1.1061Zm0,2.9691V18.5426H10.7117V19.62Zm0,2.9983V21.5117H10.7117v1.1065Z"/></g></g></svg>