<svg id="logo.svg" xmlns="http://www.w3.org/2000/svg" width="250" height="197" viewBox="0 0 250 197">
  <defs>
    <style>
      .cls-1 {
        fill: #104d8a;
        fill-rule: evenodd;
      }
    </style>
  </defs>
  <path id="長方形_1148" data-name="長方形 1148" class="cls-1" d="M657.47,1559H626.579v56.23H657.47v-7.97H635.025v-18.79h22.049v-7.98H635.025v-13.51H657.47V1559m40.371,21.18h-9.172l-9.1,19.64-9.136-19.64h-9.137l18.2,37.38,18.346-37.38m58.294-.97a9.2,9.2,0,0,0-4.205.9,15.537,15.537,0,0,0-3.989,3.19v-3.12h-8.157v34.97h8.157v-18.13c0-6.65,2.779-9.98,7.226-9.98a10.457,10.457,0,0,1,7.534,2.77v-8.52a12.665,12.665,0,0,0-6.566-2.08m47.631,0.97h-9.209l-9.234,17.97L776,1580.18h-9.464l14.4,26.33-12,22.49h9.317l25.514-48.82m-95.512,12.78a9.339,9.339,0,0,1,1.162-2.69,8.2,8.2,0,0,1,1.828-2.03,8.112,8.112,0,0,1,2.376-1.29,8.512,8.512,0,0,1,2.792-.45q6.528,0,8.23,6.46H708.254m7.978-13.75q-7.725,0-12.4,5.06-4.645,5.145-4.641,13.43,0,8.37,4.785,13.43,4.787,5.025,12.689,5.03a21.717,21.717,0,0,0,5.113-.58,15.434,15.434,0,0,0,4.388-1.81,18.035,18.035,0,0,0,3.806-3.16,24.478,24.478,0,0,0,2.31-2.95l-7.251-3.41A15.3,15.3,0,0,1,722,1607.5a8.4,8.4,0,0,1-5.039,1.44,8.689,8.689,0,0,1-6.419-2.51,10.585,10.585,0,0,1-2.828-6.86h25.307l0.036-1.9q0-8.655-4.494-13.54-4.534-4.92-12.327-4.92m36.054-90.1H667.709c-11.864.2-15.249,0.69-22.677,4.64-6.24,3.33-60.032,31.97-60.032,31.97h31.138c11.864,0,16.612-1.27,22.665-4.64,3.836-2.13,30.093-16.04,36.307-19.19,6.867-3.5,10.088-4.42,16.48-5.01,1.5-.14,6.5-0.37,8.249-0.37H720.16c1.747,0,6.75.23,8.243,0.37,6.4,0.59,9.615,1.51,16.485,5.01,6.21,3.15,32.474,17.06,36.308,19.19,6.053,3.37,10.8,4.64,22.661,4.64h31.136s-53.788-28.64-60.029-31.97c-7.425-3.95-10.812-4.44-22.678-4.64M835,1432H803.857c-11.86,0-16.608,1.27-22.661,4.64-3.834,2.13-30.1,16.04-36.309,19.19-6.869,3.5-10.088,4.42-16.482,5.01-1.5.14-6.5,0.37-8.245,0.37H699.839c-1.748,0-6.747-.23-8.25-0.37-6.39-.59-9.613-1.51-16.479-5.01-6.213-3.15-32.472-17.06-36.308-19.19-6.053-3.37-10.8-4.64-22.664-4.64H585s53.792,28.64,60.034,31.97c7.427,3.95,10.813,4.44,22.677,4.65h84.577c11.865-.21,15.252-0.7,22.677-4.65C781.205,1460.64,835,1432,835,1432m-197.53,40.49s-3.5,1.28-4,1.57a0.691,0.691,0,0,0-.5.76v6.68c0,1.46-.578,1.91-1.778,1.91H620.5c-1.208,0-1.779-.45-1.779-1.91v-6.68a0.7,0.7,0,0,0-.5-0.76c-0.5-.29-4-1.57-4-1.57v8.79c0,3.03,1.487,3.95,3.989,3.95h15.263c2.5,0,3.991-.92,3.991-3.95v-8.79m100.989,0h-16.8c-2.5,0-3.989.93-3.989,3.95v8.22a0.472,0.472,0,0,0,.582.57h20.2a2.819,2.819,0,0,0,2.42-.97c0.326-.33.591-0.62,0.788-0.85h-19.03a0.378,0.378,0,0,1-.461-0.47v-3.15H739.66v-1.86H722.171v-1.7c0-1.47.573-1.91,1.778-1.91H741.67c-0.2-.24-0.47-0.53-0.8-0.86a2.819,2.819,0,0,0-2.42-.97m-78.492,0h-15.7c-2.5,0-3.991.93-3.991,3.95v2.77a0.478,0.478,0,0,0,.579.58h17.621a0.3,0.3,0,0,1,.348.35v1.36c0,1.46-.576,1.91-1.781,1.91H640.416c0.2,0.23.468,0.52,0.789,0.85a2.838,2.838,0,0,0,2.426.97h15.7c2.5,0,3.987-.92,3.987-3.95v-2.78a0.476,0.476,0,0,0-.584-0.57H645.121a0.294,0.294,0,0,1-.348-0.35v-1.35c0-1.47.574-1.91,1.784-1.91h16.616c-0.205-.24-0.468-0.53-0.791-0.86a2.822,2.822,0,0,0-2.42-.97m26.081,0h-15.8c-2.5,0-3.988.93-3.988,3.95v8.22a0.477,0.477,0,0,0,.577.57h19.21a2.839,2.839,0,0,0,2.423-.97c0.323-.33.587-0.62,0.788-0.85H672.535c-1.208,0-1.78-.45-1.78-1.91v-5.27c0-1.47.572-1.91,1.78-1.91h16.719c-0.2-.24-0.465-0.53-0.788-0.86a2.839,2.839,0,0,0-2.423-.97m6.119,0v12.17c0,0.47.124,0.57,0.581,0.57H711.75a2.836,2.836,0,0,0,2.425-.97c0.32-.33.585-0.62,0.789-0.85H698.445c-1.207,0-1.782-.45-1.782-1.91v-6.68a0.693,0.693,0,0,0-.5-0.76c-0.5-.29-4-1.57-4-1.57m-81.512,0h-2.6a2.8,2.8,0,0,0-2.5.93l-3.45,3.5a2.408,2.408,0,0,1-1.6.91,7,7,0,0,1-1.314.1h-2.137a7.039,7.039,0,0,1-1.319-.1,2.409,2.409,0,0,1-1.6-.91c-1.6-1.62-3.1-3.14-3.456-3.5a2.777,2.777,0,0,0-2.494-.93h-2.6c-0.484,0-.582.1-0.582,0.58v12.16h3.056V1477c0.9,0.9,1.641,1.66,1.851,1.87a3.133,3.133,0,0,0,2.618.92h11.19a3.108,3.108,0,0,0,2.608-.92c0.213-.21.954-0.97,1.853-1.87v8.23h3.056v-12.16c0-.48-0.1-0.58-0.581-0.58m191.634,0s-3.5,1.28-4,1.57a0.691,0.691,0,0,0-.5.76v6.68c0,1.46-.572,1.91-1.781,1.91H785.32c-1.208,0-1.78-.45-1.78-1.91v-6.68a0.69,0.69,0,0,0-.5-0.76c-0.5-.29-4-1.57-4-1.57v8.79c0,3.03,1.489,3.95,3.987,3.95H798.3c2.5,0,3.986-.92,3.986-3.95v-8.79m-29.535,0h-15.7c-2.5,0-3.987.93-3.987,3.95v2.77a0.476,0.476,0,0,0,.578.58H771.26a0.3,0.3,0,0,1,.347.35v1.36c0,1.46-.576,1.91-1.778,1.91H753.207c0.2,0.23.464,0.52,0.787,0.85a2.83,2.83,0,0,0,2.422.97h15.7c2.5,0,3.992-.92,3.992-3.95v-2.78a0.476,0.476,0,0,0-.584-0.57H757.911a0.293,0.293,0,0,1-.346-0.35v-1.35c0-1.47.572-1.91,1.78-1.91H775.96c-0.2-.24-0.462-0.53-0.788-0.86a2.829,2.829,0,0,0-2.423-.97m36.453,0.02h-3.927v12.14c0,0.47.121,0.58,0.581,0.58h3.924v-12.14a0.475,0.475,0,0,0-.578-0.58m22.167,0H815.561c-1.777,0-3.045.48-3.622,1.83h9.275v10.31c0,0.47.125,0.58,0.582,0.58h3.92v-10.89h9.277c-0.579-1.35-1.842-1.83-3.624-1.83" transform="translate(-585 -1432)"/>
</svg>
