<svg xmlns="http://www.w3.org/2000/svg" width="254.31" height="28.03" viewBox="0 0 254.31 28.03">
  <defs>
    <style>
      .cls-1 {
        fill: #fff;
        fill-rule: evenodd;
      }
    </style>
  </defs>
  <path id="eve_lin_but_01.svg" class="cls-1" d="M2167.04,1601.8c0-8.5-5.43-14-13.17-14s-13.14,5.5-13.14,14c0,8.46,5.36,14,13.14,14S2167.04,1610.26,2167.04,1601.8Zm-5.11,0c0,5.97-3.31,9.65-8.06,9.65-4.54,0-8.03-3.46-8.03-9.65,0-6.23,3.53-9.61,8.03-9.61C2158.58,1592.19,2161.93,1595.82,2161.93,1601.8Zm30.85,13.14v-26.28h-4.68v15.19l0.51,5.87-1.98-4.32-10.37-16.74h-5.18v26.28h4.68v-15.19l-0.51-5.87,1.98,4.32,10.37,16.74h5.18Zm24.56,0v-4.11h-14.57v-22.17h-4.86v26.28h19.43Zm7.54,0v-26.28h-4.86v26.28h4.86Zm26.61,0v-26.28h-4.68v15.19l0.51,5.87-1.98-4.32-10.37-16.74h-5.18v26.28h4.68v-15.19l-0.51-5.87,1.98,4.32,10.37,16.74h5.18Zm25.61,0v-4.11h-15.62v-7.77h13.89v-3.78h-13.89v-6.52h15.04v-4.1h-19.87v26.28h20.45Zm37.04-7.6c0-5.15-4.57-6.69-6.58-7.12l-6.84-1.52c-2.81-.61-3.71-1.8-3.71-3.31,0-3.42,4.89-3.49,5.76-3.49,1.33,0,5.54.22,5.72,4.18h4.86c-0.5-3.06-1.08-4.32-2.59-5.69-2.41-2.2-5.72-2.59-7.92-2.59-5.15,0-10.58,2.19-10.58,7.84,0,5.01,3.67,6.91,7.05,7.67l6.34,1.4c2.37,0.54,3.53,1.26,3.53,3.17,0,3.71-5.22,3.85-6.45,3.85-1.94,0-5.79-.46-6.01-4.68h-4.86c0.4,7.53,6.8,8.75,11.3,8.75C2310.11,1615.8,2314.14,1612.17,2314.14,1607.34Zm25.5,7.6v-26.28h-4.86v10.22H2322.8v-10.22h-4.86v26.28h4.86v-11.95h11.98v11.95h4.86Zm30.33-13.14c0-8.5-5.43-14-13.17-14s-13.14,5.5-13.14,14c0,8.46,5.36,14,13.14,14S2369.97,1610.26,2369.97,1601.8Zm-5.11,0c0,5.97-3.31,9.65-8.06,9.65-4.54,0-8.03-3.46-8.03-9.65,0-6.23,3.53-9.61,8.03-9.61C2361.51,1592.19,2364.86,1595.82,2364.86,1601.8Zm30.17-4.82c0-4.47-3.24-8.32-8.97-8.32h-12.09v26.28h4.86v-9.36h7.23C2390.96,1605.58,2395.03,1602.27,2395.03,1596.98Zm-5.11-.04c0,3.06-1.88,4.54-4.58,4.54h-6.51v-8.72h6.51C2387.9,1592.76,2389.92,1593.77,2389.92,1596.94Z" transform="translate(-2140.72 -1587.78)"/>
</svg>
