<svg xmlns="http://www.w3.org/2000/svg" width="257.594" height="40.438" viewBox="0 0 257.594 40.438">
  <defs>
    <style>
      .cls-1 {
        fill: #fff;
        fill-rule: evenodd;
      }
    </style>
  </defs>
  <path id="product-head.svg" class="cls-1" d="M31.252,105.536c0-6.448-4.68-12.013-12.948-12.013H0.831v37.962h7.02V117.964H18.3C25.376,117.964,31.252,113.18,31.252,105.536Zm-7.384-.052c0,4.42-2.7,6.552-6.6,6.552H7.851V99.452h9.412C20.955,99.452,23.867,100.908,23.867,105.484Zm42.427,26c-1.04-.728-2.444-1.716-2.444-5.512v-3.849c0-7.124-3.588-8.216-7.28-8.736,3.224-.728,4.472-1.4,5.928-3.068a9.763,9.763,0,0,0,2.34-6.5c0-5.929-4.628-10.3-11.7-10.3H35.249v37.962h7.02V116.612h9.724c4.056,0,4.888,3.536,4.888,6.24v4.577c0,2.756.468,3.328,1.248,4.056h8.164ZM57.35,104.756c0,3.9-2.392,5.928-6.292,5.928H42.27V99.452H52.2C55.322,99.452,57.35,101.324,57.35,104.756Zm49.234,7.748c0-12.272-7.852-20.229-19.033-20.229S68.571,100.232,68.571,112.5c0,12.22,7.748,20.229,18.981,20.229S106.584,124.724,106.584,112.5Zm-7.384,0c0,8.632-4.784,13.937-11.648,13.937-6.552,0-11.6-4.993-11.6-13.937,0-9,5.1-13.885,11.6-13.885C94.364,98.62,99.2,103.872,99.2,112.5Zm46.165-.624c0-10.14-5.72-18.357-16.173-18.357H112.24v37.962h16.952C139.749,131.485,145.365,122.332,145.365,111.88Zm-7.592-.26c0,4.784-1.612,13.936-8.789,13.936h-9.776v-26.1h9.776C133.04,99.452,137.773,102.78,137.773,111.62Zm44.178,4.888V93.523h-7.02V117.34c0,5.876-3.016,9.049-8.736,9.049-4.888,0-8.581-2.5-8.581-9.049V93.523h-7.02v22.985c0,10.3,5.616,16.225,15.809,16.225C174.567,132.733,181.951,128.521,181.951,116.508Zm40.206,2.184h-7.436a7.459,7.459,0,0,1-2.392,5.1,9.89,9.89,0,0,1-6.916,2.809c-5.825,0-10.609-4.941-10.609-13.833,0-9.516,5.46-14.3,11.389-14.3a8.221,8.221,0,0,1,8.528,7.02h7.436c-0.624-6.032-5.3-13.209-16.12-13.209-13.521,0-18.669,10.557-18.669,20.593,0,10.4,5.564,19.865,18.149,19.865C216.645,132.733,221.481,125.036,222.157,118.692Zm36.295-19.24V93.523H224.391v5.928h13.521v32.034h7.02V99.452h13.52Z" transform="translate(-0.844 -92.281)"/>
</svg>
