<svg xmlns="http://www.w3.org/2000/svg" width="358.157" height="32.688" viewBox="0 0 358.157 32.688">
  <defs>
    <style>
      .cls-1 {
        fill: #fff;
        fill-rule: evenodd;
      }
    </style>
  </defs>
  <path id="product-movie-head.svg" class="cls-1" d="M25.22,380.223c0-5.209-3.781-9.7-10.46-9.7H0.646v30.666H6.317V390.263H14.76C20.474,390.263,25.22,386.4,25.22,380.223Zm-5.965-.042c0,3.571-2.184,5.293-5.335,5.293h-7.6V375.308h7.6C16.9,375.308,19.255,376.484,19.255,380.181Zm34.391,21c-0.84-.588-1.974-1.386-1.974-4.453v-3.109c0-5.755-2.9-6.637-5.881-7.057,2.6-.588,3.613-1.134,4.789-2.478a7.889,7.889,0,0,0,1.89-5.251c0-4.789-3.739-8.318-9.452-8.318H28.567v30.666h5.671V389.171h7.855c3.277,0,3.949,2.856,3.949,5.041v3.7c0,2.227.378,2.689,1.008,3.277h6.6Zm-7.225-21.592c0,3.15-1.932,4.789-5.083,4.789h-7.1v-9.074h8.023C44.782,375.308,46.421,376.82,46.421,379.593Zm39.894,6.259c0-9.914-6.343-16.341-15.375-16.341s-15.333,6.427-15.333,16.341c0,9.872,6.259,16.341,15.333,16.341S86.314,395.724,86.314,385.852Zm-5.965,0c0,6.973-3.865,11.258-9.41,11.258-5.293,0-9.368-4.033-9.368-11.258,0-7.267,4.117-11.216,9.368-11.216C76.442,374.636,80.349,378.879,80.349,385.852Zm37.414-.5c0-8.192-4.621-14.829-13.065-14.829H91v30.666H104.7C113.226,401.185,117.763,393.791,117.763,385.348Zm-6.133-.21c0,3.865-1.3,11.258-7.1,11.258h-7.9V375.308h7.9C107.807,375.308,111.63,378,111.63,385.138Zm35.809,3.949V370.519h-5.671v19.24c0,4.747-2.436,7.309-7.057,7.309-3.949,0-6.931-2.016-6.931-7.309v-19.24h-5.671v18.568c0,8.317,4.536,13.106,12.77,13.106C141.474,402.193,147.439,398.79,147.439,389.087Zm32.6,1.764h-6.007a6.029,6.029,0,0,1-1.932,4.117,7.991,7.991,0,0,1-5.587,2.268c-4.7,0-8.57-3.991-8.57-11.174,0-7.687,4.411-11.552,9.2-11.552a6.641,6.641,0,0,1,6.889,5.671h6.007c-0.5-4.873-4.285-10.67-13.022-10.67-10.922,0-15.081,8.528-15.081,16.635,0,8.4,4.5,16.047,14.661,16.047C175.582,402.193,179.489,395.976,180.035,390.851Zm29.437-15.543v-4.789H181.957v4.789h10.922v25.877h5.671V375.308h10.922Zm47.922,25.877V370.519h-8.863l-5.461,21.172-0.714,4.873-0.714-4.873-5.419-21.172h-8.906v30.666h5.209V374.258l6.763,26.927h6.133l6.764-26.927v26.927h5.208Zm35.314-15.333c0-9.914-6.343-16.341-15.375-16.341S262,375.938,262,385.852c0,9.872,6.259,16.341,15.333,16.341S292.708,395.724,292.708,385.852Zm-5.965,0c0,6.973-3.865,11.258-9.41,11.258-5.293,0-9.368-4.033-9.368-11.258,0-7.267,4.117-11.216,9.368-11.216C282.836,374.636,286.743,378.879,286.743,385.852Zm34.019-15.333h-6.049l-6.763,21.256-0.924,4.243-0.966-4.243-6.721-21.256h-6.091l10.922,30.666h5.671Zm8.64,30.666V370.519h-5.671v30.666H329.4Zm29.412,0V396.4H340.582v-9.074H356.8v-4.41H340.582v-7.6h17.559v-4.789H334.953v30.666h23.861Z" transform="translate(-0.656 -369.5)"/>
</svg>
