<svg xmlns="http://www.w3.org/2000/svg" width="253.406" height="40.438" viewBox="0 0 253.406 40.438">
  <defs>
    <style>
      .cls-1 {
        fill: #fff;
        fill-rule: evenodd;
      }
    </style>
  </defs>
  <path id="support-head.svg" class="cls-1" d="M33.013,674.512c0-7.436-6.6-9.672-9.516-10.3l-9.88-2.184c-4.056-.884-5.356-2.6-5.356-4.784,0-4.941,7.072-5.045,8.32-5.045,1.924,0,8.008.312,8.268,6.033h7.02c-0.728-4.42-1.56-6.241-3.744-8.217-3.484-3.172-8.268-3.744-11.44-3.744-7.436,0-15.289,3.172-15.289,11.337,0,7.228,5.3,9.984,10.192,11.076l9.152,2.028c3.432,0.78,5.1,1.82,5.1,4.576,0,5.357-7.54,5.565-9.308,5.565-2.808,0-8.372-.676-8.684-6.761H0.823c0.572,10.869,9.828,12.637,16.329,12.637C27.188,686.733,33.013,681.481,33.013,674.512Zm36.249-4V647.523h-7.02V671.34c0,5.876-3.016,9.049-8.736,9.049-4.888,0-8.58-2.5-8.58-9.049V647.523H37.9v22.985c0,10.3,5.616,16.225,15.809,16.225C61.877,686.733,69.262,682.521,69.262,670.508Zm37.6-10.972c0-6.449-4.68-12.013-12.949-12.013H76.436v37.962h7.02V671.964H93.908C100.981,671.964,106.857,667.18,106.857,659.536Zm-7.384-.052c0,4.42-2.7,6.552-6.6,6.552H83.456V653.452h9.412C96.561,653.452,99.473,654.908,99.473,659.484Zm41.9,0.052c0-6.449-4.68-12.013-12.948-12.013H110.948v37.962h7.02V671.964h10.453C135.493,671.964,141.369,667.18,141.369,659.536Zm-7.384-.052c0,4.42-2.7,6.552-6.6,6.552h-9.413V653.452h9.413C131.073,653.452,133.985,654.908,133.985,659.484Zm48.443,7.02c0-12.272-7.852-20.229-19.032-20.229s-18.981,7.957-18.981,20.229c0,12.22,7.748,20.229,18.981,20.229S182.428,678.724,182.428,666.5Zm-7.384,0c0,8.632-4.784,13.937-11.648,13.937-6.552,0-11.6-4.993-11.6-13.937,0-9,5.1-13.885,11.6-13.885C170.208,652.619,175.044,657.872,175.044,666.5Zm43.867,18.981c-1.04-.728-2.444-1.716-2.444-5.512v-3.849c0-7.124-3.588-8.216-7.281-8.736,3.225-.728,4.473-1.4,5.929-3.068a9.763,9.763,0,0,0,2.34-6.5c0-5.929-4.628-10.3-11.7-10.3H187.866v37.962h7.02V670.612h9.724c4.056,0,4.888,3.536,4.888,6.24v4.577c0,2.756.468,3.328,1.248,4.056h8.165Zm-8.945-26.729c0,3.9-2.392,5.928-6.292,5.928h-8.788V653.452h9.932C207.938,653.452,209.966,655.324,209.966,658.756Zm44.258-5.3v-5.929H220.163v5.929h13.52v32.033h7.02V653.452h13.521Z" transform="translate(-0.813 -646.281)"/>
</svg>
